Patient4_TMGait_0pt7_02_left_50_EMG.mot
version=1
nRows=20
nColumns=33
inDegrees=no
endheader
time	1LAddLong	2LGlutMax	3LGlutMed	4LIliopsoas	5LSemiMemb	6LBicFemLong	7LRecFem	8LVastMed	9LVastLat	10LGasMed	11LTibAnt	12lTibPost	13LPeroneusLong	14LSol	15LExtDigLong	16LFlexDigLong	17RAddLong	18RGlutMax	19RGlutMed	20RIliopsoas	21RSemiMemb	22RBicFemLong	23RRecFem	24RVastMed	25RVastLat	26RGasMed	27RTibAnt	28RTibPost	29RPeroneusLong	30RSol	31RExtDigLong	32RFlexDigLong
57.27	0.005798	-0.37293	0.021667	-0.011597	-0.019989	-0.001984	0.11475	0.007172	0.077209	-0.051727	-0.10925	-0.014496	0.021515	-0.11292	0.51804	-0.072632	0.00061	0.017242	0.5098	-0.027313	-0.089264	-0.1059	0.071869	-0.11063	0.071716	-0.039673	0.059052	-0.002899	-0.057831	-0.018768	-0.003052	-0.016937
57.271	0.009613	-0.39627	-0.005188	-0.00412	-0.027771	-0.0177	0.069733	0.00351	0.078278	-0.039978	-0.14481	-0.015717	0.02121	-0.070496	-0.44922	0.21515	0.009918	-0.066071	0.61798	-0.049591	-0.18021	-0.069122	0.041962	-0.090942	0.05249	-0.029907	0.048981	-0.001831	-0.43976	-0.025635	0.002289	-0.020447
57.272	0.012512	-0.41962	-0.010529	0.007324	-0.0177	-0.012512	0.008698	0.009613	0.067902	-0.011444	-0.14633	-0.016479	0.001526	-0.086975	-0.24918	0.14236	0.036621	-0.031433	0.37598	-0.019684	-0.057831	-0.040588	0.00351	0.006866	0.065002	-0.043945	0.063934	-0.000153	-0.1741	-0.070343	-0.002289	-0.019531
57.273	0.011749	-0.42908	-0.031891	-0.003357	0.010376	0.011597	-0.029755	0.008698	0.06485	0.003052	-0.099792	-0.011902	0.000763	-0.16144	-0.18662	0.018311	0.039825	0.073395	-0.068054	-0.017853	-0.014343	-0.071411	0.06546	-0.023651	0.027771	-0.03952	0.028992	-0.007782	-0.072479	0.048523	-0.00061	-0.026855
57.274	0.016327	-0.40314	-0.011444	-0.005188	0.008545	0.014191	-0.035858	0.005341	0.058746	-0.010376	0.077972	-0.011902	0.030212	-0.12192	-0.12253	-0.010223	0.049896	0.12787	0.20996	-0.047455	0.093536	-0.10529	0.093689	-0.10361	0.071564	-0.015869	-0.005035	-0.001831	-0.19104	0.26321	0.001678	-0.020447
57.275	0.013123	-0.38422	0.011292	-0.012054	-0.008392	0.004425	-0.10803	0.00824	0.06546	-0.00885	0.12222	-0.014954	0.05188	-0.06134	-0.12177	-0.020294	0.092468	0.14023	0.5693	-0.051117	0.20691	-0.22934	-0.000305	-0.12375	0.084076	0.00061	0.094604	-0.011749	-0.2536	0.2034	0.001984	-0.014954
57.276	0.022888	-0.41199	-0.001068	0.00061	-0.033417	-0.02121	-0.085602	0.007629	0.07309	0.002899	-0.053864	-0.012665	0.055237	-0.008087	-0.1239	-0.02655	0.11292	0.10773	0.74234	-0.013428	-0.26855	-0.14008	0.005798	-0.16037	0.10147	-0.021973	0.19547	-0.001373	-0.11917	0.14954	-0.001221	-0.019073
57.277	0.017395	-0.41	-0.004272	-0.017853	-0.019226	-0.069122	-0.036774	0.009003	0.055237	0.00061	-0.19058	-0.016479	0.050049	0.00885	-0.003815	-0.028839	0.031281	0.12344	0.85525	0.10941	-0.48874	0.061646	-0.029755	-0.068512	0.11505	-0.03952	0.24124	-0.002289	-0.10254	-0.031586	0.000153	-0.0177
57.278	0.014191	-0.3717	-0.007324	-0.02243	0.005951	-0.041809	-0.040283	0.014648	0.060577	-0.018005	-0.15457	-0.013123	0.039825	0.018311	0.026855	-0.030975	-0.09491	0.14908	0.5629	0.065308	-0.56671	0.27435	-0.07843	0.005341	0.13229	-0.042877	-0.12802	-0.002747	-0.077667	-0.13763	0.001526	-0.021667
57.279	0.018158	-0.41992	-0.005646	0.007782	0.024567	-0.032349	-0.022736	0.007324	0.055847	-0.054474	-0.02121	-0.006714	-0.040894	-0.004578	0.19318	-0.018311	-0.15884	0.002136	0.21698	0.056915	-0.045471	0.24139	-0.011749	0.1503	0.098572	-0.022278	-0.1416	-0.00412	-0.11444	-0.16525	-0.003815	-0.023346
57.28	0.012054	-0.40726	-0.017395	0.032043	0.003357	-0.019226	0.015564	0.011749	0.057373	-0.040894	0.092773	-0.005646	-0.040131	0.000763	0.040436	-0.02533	-0.12756	-0.044403	-0.056152	-0.038452	0.089417	0.15213	0.15121	0.047455	0.012207	0.005188	0.22201	-0.001068	-0.09201	-0.33539	0.000763	-0.032806
57.281	0.011292	-0.40115	-0.002747	0.033569	-0.012512	-0.042725	0.055084	0.014038	0.049591	-0.050964	0.1506	-0.001068	-0.007172	0.028076	0.091095	-0.011902	-0.035858	-0.1358	1.2439	-0.18723	0.12405	0.13886	0.30029	-0.17181	-0.055542	-0.00885	0.63721	-0.009003	-0.060883	-0.44525	-0.003662	-0.029602
57.282	0.0177	-0.39291	-0.009308	0.029755	-0.005188	-0.030365	0.058289	0.0177	0.046844	-0.045471	0.062408	-0.006561	0.040131	-0.035248	-0.063171	-0.016785	-0.024414	-0.20187	1.3763	-0.21118	0.086517	0.20447	0.30731	-0.058594	-0.112	-0.045013	0.98816	0	-0.021515	-0.23239	-0.001526	-0.012512
57.283	0.021362	-0.37094	-0.00824	0.017548	0.003662	-0.018005	0.046387	0.013428	0.041656	-0.051575	-0.0737	-0.015411	0.075226	-0.049744	-0.10605	-0.01709	-0.006561	-0.23956	0.6282	-0.11505	-0.006561	0.19196	0.4306	0.031586	-0.23743	0.010223	0.005341	0.001221	0.068512	0.17364	-0.008087	-0.013428
57.284	0.017853	-0.39566	-0.008087	0.025024	0.003967	-0.026398	0.021362	0.018921	0.047302	-0.033417	-0.070038	-0.011292	0.053558	-0.006409	-0.121	-0.014496	0.018768	-0.23178	0.46448	-0.041962	0.17853	0.18936	0.14389	0.015869	0.11597	0.010376	0.24017	0	-0.06485	0.5159	0.003357	-0.016785
57.285	0.0177	-0.35889	-0.010681	-0.008392	0.002136	-0.019836	0.016479	0.011902	0.058136	-0.010223	-0.000305	-0.007324	0.016785	0.007477	-0.084991	-0.012665	0.055847	-0.23972	0.19959	0.014343	0.21057	0.15488	-0.01297	-0.087738	0.31067	0.005341	0.37308	0.003967	-0.18768	0.29068	-0.004272	-0.019836
57.286	0.01358	-0.35934	-0.017242	-0.004883	0.001678	-0.0354	-0.00061	0.015259	0.044861	-0.017395	0.044861	-0.000763	-0.015259	0.00946	-0.014038	-0.01297	0.052643	-0.12497	0.30701	-0.009155	0.075531	0.089417	-0.044708	-0.2742	0.30518	0.000305	-0.13153	0.00351	-0.047455	-0.054779	-0.006409	-0.011749
57.287	0.018921	-0.36148	-0.028992	0.012817	-0.003815	-0.045166	-0.026093	0.011902	0.037537	-0.02533	0.019836	-0.005798	0.012054	-0.025482	-0.045929	-0.00061	0.012054	-0.11795	0.34058	-0.056458	-0.090637	0.06546	-0.22369	-0.40451	0.16754	-0.005798	-0.31937	-0.003052	0.084229	-0.65781	0.000305	-0.010681
57.288	0.007782	-0.35599	-0.020752	0.019379	-0.005035	-0.012665	0.00412	0.006714	0.042114	0.000763	0.027466	-0.003662	0.032196	0.054932	-0.028839	-0.01236	0.004883	-0.11505	0.31113	-0.026703	-0.094604	-0.10346	-0.56351	-0.25757	0.37628	0.001678	-0.18601	-0.007019	0.11261	-0.67596	-0.001526	0.003052
57.289	0.010681	-0.32638	-0.026703	0.006409	-0.007629	-0.024567	0.02533	0.011902	0.047913	0.010529	0.070801	-0.002594	0.057373	0.028687	0.07309	-0.011139	0.000458	-0.13306	0.25665	-0.02182	0.25879	-0.36026	-0.82169	0.041351	0.61737	-0.004578	-0.49622	-0.004425	0.086823	-0.096893	-0.002136	-0.009918
